<?xml version="1.0" standalone="no"?>
<!DOCTYPE svg PUBLIC "-//W3C//DTD SVG 20010904//EN"
 "http://www.w3.org/TR/2001/REC-SVG-20010904/DTD/svg10.dtd">
<svg version="1.0" xmlns="http://www.w3.org/2000/svg"
 width="256.000000pt" height="256.000000pt" viewBox="0 0 256.000000 256.000000"
 preserveAspectRatio="xMidYMid meet">

<g transform="translate(0.000000,256.000000) scale(0.100000,-0.100000)"
fill="#000000" stroke="none">
<path d="M1142 1513 l-52 -4 25 -33 c26 -34 55 -106 55 -136 0 -15 -13 -19
-82 -24 -117 -10 -291 -41 -371 -66 -37 -11 -72 -18 -78 -14 -8 4 -10 34 -7
84 l5 78 -51 -23 c-28 -12 -96 -43 -151 -68 -122 -56 -157 -63 -212 -43 -47
16 -44 19 -58 -50 -8 -44 10 -148 37 -203 41 -86 159 -183 249 -204 30 -8 35
1 90 162 35 102 65 144 129 176 217 110 770 134 1105 49 137 -36 205 -88 239
-186 10 -29 32 -88 48 -130 28 -75 29 -76 56 -68 80 22 169 90 208 156 15 25
25 46 23 47 -115 75 -159 138 -159 228 l0 40 -123 59 c-298 143 -585 196 -925
173z"/>
<path d="M1645 1011 c-64 -27 -82 -114 -32 -157 62 -54 157 -17 157 61 0 47
-14 71 -50 90 -32 17 -45 18 -75 6z"/>
<path d="M825 985 c-27 -26 -34 -80 -15 -116 16 -28 67 -51 99 -44 74 16 103
114 48 161 -39 33 -99 33 -132 -1z"/>
<path d="M1100 836 c-15 -39 6 -74 51 -88 34 -10 44 -8 87 13 44 22 52 23 70
11 55 -36 146 -30 161 11 12 31 -6 77 -31 77 -16 0 -19 -6 -16 -32 3 -28 -1
-34 -20 -36 -32 -5 -80 16 -93 39 -14 27 -33 24 -68 -12 -24 -24 -38 -30 -63
-27 -29 3 -33 6 -33 33 0 40 -31 47 -45 11z"/>
<path d="M429 733 c-43 -109 -33 -223 27 -311 113 -168 381 -251 809 -252 490
0 769 93 871 291 24 46 28 65 28 134 -1 82 -19 155 -41 163 -9 2 -8 -9 4 -40
24 -66 23 -182 -4 -241 -43 -93 -163 -182 -304 -225 -141 -43 -268 -57 -539
-56 -262 0 -343 7 -495 46 -155 38 -291 133 -337 233 -27 60 -30 175 -5 243
17 46 4 60 -14 15z"/>
</g>
</svg>
